<svg width="980" height="598" viewBox="0 0 980 598" version="1.1" xmlns="http://www.w3.org/2000/svg" xmlns:xlink="http://www.w3.org/1999/xlink">
<title>Logo</title>
<desc>Main Logo</desc>
<g id="Canvas" transform="translate(-20990 -1876)">
  <clipPath id="clip-0" clip-rule="evenodd">
      <path d="M 20990 1876L 21970 1876L 21970 2474L 20990 2474L 20990 1876Z" fill="#FFFFFF"/>
  </clipPath>
<g id="Frame" clip-path="url(#clip-0)">
<g id="Group 2.3">
<g id="Group">
  <g id="sub1">
    <a href = "https://www.w3schools.com/tags/att_a_target.asp" target="_blank"><use xlink:href="#path0_fill" transform="translate(21507.5 1874)" fill="#F2C94C"/></a>
  </g>
<g id="vec1">
<use xlink:href="#path1_fill" transform="translate(21439.6 1934.83)" fill="#27AE60"/>
</g>
<g id="vec2">
<use xlink:href="#path2_fill" transform="translate(21196.4 1934.82)" fill="#4F4F4F"/>
</g>
</g>
<g id="sub2">
<use xlink:href="#path3_fill" transform="translate(20990 1874)" fill="#2F80ED"/>
</g>
</g>
<g id="FEHRNSTROM">
<use xlink:href="#path4_fill" transform="matrix(0.459551 -0.888151 0.888151 0.459551 21601 2423.85)"/>
</g>
</g>
</g>
<defs>
<path id="path0_fill" fill-rule="evenodd" d="M 221.328 0L 0 415.462L 93.4941 550.935L 381.551 0L 221.328 0Z"/>
<path id="path1_fill" d="M 161.675 490.11L 0 256.658L 0.0265208 0L 245.883 328.391L 161.675 490.11Z"/>
<path id="path2_fill" d="M 243.115 0L 0 333.587L 81.3885 490.182L 335.524 123.363L 243.171 0.0759988L 243.115 0Z"/>
<path id="path3_fill" fill-rule="evenodd" d="M 0 0L 288.092 551L 385.535 409.802L 162.213 0L 0 0Z"/> <!--Blue-->
<path id="path4_fill" d="M 47.1377 60.3789L 21.1592 60.3789L 21.1592 87L 5.04883 87L 5.04883 20.1719L 49.7539 20.1719L 49.7539 32.6104L 21.1592 32.6104L 21.1592 47.9863L 47.1377 47.9863L 47.1377 60.3789ZM 97.9014 58.6807L 72.5654 58.6807L 72.5654 74.6074L 102.491 74.6074L 102.491 87L 56.4551 87L 56.4551 20.1719L 102.583 20.1719L 102.583 32.6104L 72.5654 32.6104L 72.5654 46.7012L 97.9014 46.7012L 97.9014 58.6807ZM 164.913 87L 148.895 87L 148.895 59.0938L 125.165 59.0938L 125.165 87L 109.055 87L 109.055 20.1719L 125.165 20.1719L 125.165 46.7012L 148.895 46.7012L 148.895 20.1719L 164.913 20.1719L 164.913 87ZM 199.979 63.4082L 191.259 63.4082L 191.259 87L 175.148 87L 175.148 20.1719L 201.448 20.1719C 209.373 20.1719 215.57 21.9313 220.037 25.4502C 224.505 28.9691 226.738 33.9414 226.738 40.3672C 226.738 45.0182 225.79 48.8737 223.893 51.9336C 222.026 54.9935 219.089 57.472 215.08 59.3691L 229.033 86.3115L 229.033 87L 211.775 87L 199.979 63.4082ZM 191.259 50.9697L 201.448 50.9697C 204.508 50.9697 206.803 50.1742 208.333 48.583C 209.894 46.9613 210.674 44.7122 210.674 41.8359C 210.674 38.9596 209.894 36.7106 208.333 35.0889C 206.772 33.4365 204.478 32.6104 201.448 32.6104L 191.259 32.6104L 191.259 50.9697ZM 292.281 87L 276.263 87L 252.579 45.416L 252.579 87L 236.469 87L 236.469 20.1719L 252.579 20.1719L 276.217 61.7559L 276.217 20.1719L 292.281 20.1719L 292.281 87ZM 336.94 69.2373C 336.94 66.8812 336.099 65.0452 334.416 63.7295C 332.764 62.4137 329.841 61.0521 325.649 59.6445C 321.457 58.237 318.03 56.8753 315.368 55.5596C 306.709 51.3063 302.379 45.4619 302.379 38.0264C 302.379 34.3239 303.45 31.0651 305.592 28.25C 307.764 25.4043 310.824 23.2012 314.771 21.6406C 318.719 20.0495 323.156 19.2539 328.082 19.2539C 332.886 19.2539 337.185 20.1107 340.979 21.8242C 344.804 23.5378 347.772 25.9857 349.884 29.168C 351.995 32.3197 353.051 35.9303 353.051 40L 336.986 40C 336.986 37.2767 336.145 35.1654 334.462 33.666C 332.81 32.1667 330.561 31.417 327.715 31.417C 324.839 31.417 322.559 32.0596 320.876 33.3447C 319.224 34.5993 318.397 36.2057 318.397 38.1641C 318.397 39.8776 319.315 41.4382 321.151 42.8457C 322.987 44.2227 326.215 45.6608 330.836 47.1602C 335.456 48.6289 339.251 50.2201 342.219 51.9336C 349.44 56.0951 353.051 61.8324 353.051 69.1455C 353.051 74.9899 350.848 79.5798 346.441 82.915C 342.035 86.2503 335.992 87.918 328.312 87.918C 322.896 87.918 317.984 86.9541 313.578 85.0264C 309.202 83.068 305.898 80.4059 303.664 77.04C 301.461 73.6436 300.359 69.7422 300.359 65.3359L 316.516 65.3359C 316.516 68.916 317.434 71.5628 319.27 73.2764C 321.136 74.9593 324.15 75.8008 328.312 75.8008C 330.974 75.8008 333.07 75.2347 334.6 74.1025C 336.16 72.9398 336.94 71.318 336.94 69.2373ZM 413.774 32.6104L 393.717 32.6104L 393.717 87L 377.606 87L 377.606 32.6104L 357.916 32.6104L 357.916 20.1719L 413.774 20.1719L 413.774 32.6104ZM 445.444 63.4082L 436.724 63.4082L 436.724 87L 420.613 87L 420.613 20.1719L 446.913 20.1719C 454.838 20.1719 461.035 21.9313 465.502 25.4502C 469.969 28.9691 472.203 33.9414 472.203 40.3672C 472.203 45.0182 471.255 48.8737 469.357 51.9336C 467.491 54.9935 464.553 57.472 460.545 59.3691L 474.498 86.3115L 474.498 87L 457.24 87L 445.444 63.4082ZM 436.724 50.9697L 446.913 50.9697C 449.973 50.9697 452.268 50.1742 453.798 48.583C 455.358 46.9613 456.139 44.7122 456.139 41.8359C 456.139 38.9596 455.358 36.7106 453.798 35.0889C 452.237 33.4365 449.942 32.6104 446.913 32.6104L 436.724 32.6104L 436.724 50.9697ZM 538.526 54.9629C 538.526 61.4805 537.318 67.2484 534.9 72.2666C 532.483 77.2848 529.041 81.1556 524.573 83.8789C 520.136 86.5716 515.072 87.918 509.381 87.918C 503.689 87.918 498.641 86.6175 494.234 84.0166C 489.828 81.3851 486.386 77.6367 483.907 72.7715C 481.459 67.9062 480.174 62.3219 480.052 56.0186L 480.052 52.2549C 480.052 45.7067 481.245 39.9388 483.632 34.9512C 486.049 29.9329 489.492 26.0622 493.959 23.3389C 498.457 20.6156 503.567 19.2539 509.289 19.2539C 514.95 19.2539 519.999 20.6003 524.436 23.293C 528.872 25.9857 532.315 29.8258 534.763 34.8135C 537.241 39.7705 538.496 45.4619 538.526 51.8877L 538.526 54.9629ZM 522.141 52.1631C 522.141 45.5231 521.024 40.4896 518.79 37.0625C 516.587 33.6048 513.42 31.876 509.289 31.876C 501.211 31.876 496.942 37.9346 496.483 50.0518L 496.438 54.9629C 496.438 61.5111 497.524 66.5446 499.696 70.0635C 501.869 73.5824 505.097 75.3418 509.381 75.3418C 513.451 75.3418 516.587 73.613 518.79 70.1553C 520.993 66.6976 522.11 61.7253 522.141 55.2383L 522.141 52.1631ZM 567.993 20.1719L 582.91 66.667L 597.781 20.1719L 618.986 20.1719L 618.986 87L 602.83 87L 602.83 71.3945L 604.391 39.4492L 588.234 87L 577.586 87L 561.384 39.4033L 562.944 71.3945L 562.944 87L 546.834 87L 546.834 20.1719L 567.993 20.1719Z"/>
</defs>
</svg>
