<svg width="163" height="248" viewBox="0 0 163 248" version="1.1" xmlns="http://www.w3.org/2000/svg" xmlns:xlink="http://www.w3.org/1999/xlink">
<title>Vector</title>
<desc>Created using Figma</desc>
<g id="Canvas" transform="translate(1 247)">
<g id="Vector">
<use xlink:href="#path0_fill" transform="translate(0 -246)" fill="#EFEFEF"/>
<use xlink:href="#path1_stroke" transform="translate(0 -246)" fill="#EFEFEF"/>
</g>
</g>
<defs>
<path id="path0_fill" d="M 89.0121 0L 0 246L 89.0121 246L 161 0L 89.0121 0Z"/>
<path id="path1_stroke" d="M 0 246L -0.470168 245.83L -0.712644 246.5L 0 246.5L 0 246ZM 89.0121 0L 89.0121 -0.5L 88.6613 -0.5L 88.5419 -0.170124L 89.0121 0ZM 161 0L 161.48 0.140428L 161.667 -0.5L 161 -0.5L 161 0ZM 89.0121 246L 89.0121 246.5L 89.3867 246.5L 89.492 246.14L 89.0121 246ZM 0.470168 246.17L 89.4823 0.170124L 88.5419 -0.170124L -0.470168 245.83L 0.470168 246.17ZM 89.0121 0.5L 161 0.5L 161 -0.5L 89.0121 -0.5L 89.0121 0.5ZM 160.52 -0.140428L 88.5322 245.86L 89.492 246.14L 161.48 0.140428L 160.52 -0.140428ZM 89.0121 245.5L 0 245.5L 0 246.5L 89.0121 246.5L 89.0121 245.5Z"/>
</defs>
</svg>
