<?xml version="1.0" encoding="iso-8859-1"?>
<!-- Generator: Adobe Illustrator 16.0.0, SVG Export Plug-In . SVG Version: 6.00 Build 0)  -->
<!DOCTYPE svg PUBLIC "-//W3C//DTD SVG 1.1//EN" "http://www.w3.org/Graphics/SVG/1.1/DTD/svg11.dtd">
<svg version="1.1" id="Capa_1" xmlns="http://www.w3.org/2000/svg" xmlns:xlink="http://www.w3.org/1999/xlink" x="0px" y="0px"
	 width="647.74px" height="647.74px" viewBox="0 0 647.74 647.74" style="enable-background:new 0 0 647.74 647.74;"
	 xml:space="preserve">
<g>
	<path d="M531.302,647.74c-54.346,0-98.56-44.214-98.56-98.56c0-0.521,0.009-1.043,0.023-1.555L204.613,415.915
		c-20.23,15.557-45.059,24.054-70.635,24.054c-64.021,0-116.108-52.077-116.108-116.09c0-64.03,52.086-116.121,116.108-116.121
		c25.571,0,50.4,8.511,70.64,24.091l228.143-131.711c-0.014-0.512-0.023-1.033-0.023-1.555C432.737,44.223,476.951,0,531.302,0
		c54.35,0,98.568,44.223,98.568,98.583c0,54.35-44.219,98.564-98.568,98.564c-19.019,0-37.286-5.402-53.209-15.684l-228.571,131.97
		c0.376,3.715,0.554,7.125,0.554,10.446c0,3.321-0.178,6.731-0.554,10.447l228.561,131.97
		c15.914-10.291,34.181-15.702,53.214-15.702c54.35,0,98.568,44.228,98.568,98.587C629.87,603.526,585.651,647.74,531.302,647.74z
		 M203.697,395.144c1.616,0,3.231,0.414,4.697,1.26l238.787,137.854c3.138,1.813,4.956,5.271,4.669,8.888
		c-0.159,1.996-0.324,3.987-0.324,6.04c0,43.983,35.788,79.771,79.771,79.771c43.993,0,79.78-35.787,79.78-79.771
		c0-44.002-35.787-79.799-79.78-79.799c-17.069,0-33.383,5.383-47.188,15.575c-3.001,2.217-7.046,2.438-10.277,0.578
		L234.735,347.487c-3.33-1.926-5.152-5.684-4.598-9.488c0.789-5.43,1.155-9.916,1.155-14.12c0-4.203-0.366-8.689-1.155-14.119
		c-0.55-3.805,1.273-7.562,4.598-9.488l239.102-138.053c3.231-1.86,7.257-1.649,10.272,0.573
		c13.814,10.183,30.137,15.562,47.192,15.562c43.992,0,79.78-35.788,79.78-79.776c0-43.998-35.788-79.794-79.78-79.794
		c-43.984,0-79.771,35.797-79.771,79.794c0,2.048,0.164,4.035,0.324,6.045c0.286,3.617-1.531,7.069-4.669,8.882l-238.792,137.86
		c-3.462,2.001-7.821,1.583-10.85-1.038c-17.694-15.336-40.269-23.777-63.571-23.777c-53.66-0.005-97.314,43.66-97.314,97.328
		c0,53.651,43.655,97.301,97.319,97.301c23.316,0,45.895-8.431,63.57-23.743C199.3,395.924,201.494,395.144,203.697,395.144z"/>
</g>
<g>
</g>
<g>
</g>
<g>
</g>
<g>
</g>
<g>
</g>
<g>
</g>
<g>
</g>
<g>
</g>
<g>
</g>
<g>
</g>
<g>
</g>
<g>
</g>
<g>
</g>
<g>
</g>
<g>
</g>
</svg>
