<?xml version="1.0" encoding="iso-8859-1"?>
<!-- Generator: Adobe Illustrator 18.1.1, SVG Export Plug-In . SVG Version: 6.00 Build 0)  -->
<svg version="1.1" id="Capa_1" xmlns="http://www.w3.org/2000/svg" xmlns:xlink="http://www.w3.org/1999/xlink" x="0px" y="0px"
	 viewBox="0 0 71.577 71.577" style="enable-background:new 0 0 71.577 71.577;" xml:space="preserve">
<g>
	<g>
		<polygon style="fill:#010002;" points="25.052,57.523 17.894,64.681 53.683,64.681 46.525,57.523 		"/>
		<path style="fill:#010002;" d="M0,6.896v46.525h71.577V6.896H0z M33.935,36.164l-0.777,0.78c0.784,2.323,0.276,4.993-1.571,6.846
			c-1.736,1.732-4.177,2.287-6.388,1.711l4.048-4.048l0.236-2.137l-2.852-2.852l-2.14,0.236l-4.051,4.048
			c-0.573-2.212-0.021-4.656,1.714-6.388c1.854-1.854,4.52-2.362,6.843-1.575l3.221-3.221l1.117,1.12l-2.076,2.079l2.545,2.545
			l0.222-0.115L33.935,36.164z M50.902,40.989l-4.277,4.27l-2.588,0.272l-9.266-9.266l0.261-2.53l-1.059,0.544l-1.521-1.517
			l2.076-2.079l-7.97-7.97l-1.893-0.709l-2.888-3.776l2.076-2.079l3.776,2.885l0.709,1.897l7.974,7.97l2.083-2.079l1.517,1.517
			l-0.54,1.059l2.527-0.261l9.266,9.262L50.902,40.989z M49.428,25.954c-1.857,1.854-4.524,2.362-6.85,1.575l-0.777,0.777l-0.97,0.1
			l0.111-0.225l-2.545-2.545l-2.076,2.079l-1.117-1.12l3.221-3.221c-0.791-2.326-0.279-4.996,1.568-6.846
			c1.732-1.732,4.177-2.287,6.388-1.711l-4.048,4.048l-0.233,2.137l2.845,2.852l2.144-0.236l4.051-4.048
			C51.707,21.777,51.156,24.222,49.428,25.954z"/>
	</g>
</g>
<g>
</g>
<g>
</g>
<g>
</g>
<g>
</g>
<g>
</g>
<g>
</g>
<g>
</g>
<g>
</g>
<g>
</g>
<g>
</g>
<g>
</g>
<g>
</g>
<g>
</g>
<g>
</g>
<g>
</g>
</svg>
