<?xml version="1.0" encoding="iso-8859-1"?>
<!-- Generator: Adobe Illustrator 19.0.0, SVG Export Plug-In . SVG Version: 6.00 Build 0)  -->
<svg version="1.1" id="Capa_1" xmlns="http://www.w3.org/2000/svg" xmlns:xlink="http://www.w3.org/1999/xlink" x="0px" y="0px"
	 viewBox="0 0 512 512" style="enable-background:new 0 0 512 512;" xml:space="preserve">
<g>
	<g>
		<path d="M486.144,342.597c-7.811-7.81-20.475-7.809-28.286,0.001l-53.488,53.488l-46.383-46.383
			c13.27-60.853,13.27-126.55,0-187.403l46.383-46.383l53.488,53.488c7.809,7.809,20.473,7.811,28.284,0
			c7.811-7.811,7.811-20.475,0-28.285l-53.488-53.488l8.303-8.303c7.811-7.811,7.811-20.475,0-28.284
			c-7.811-7.813-20.474-7.812-28.284-0.001l-8.304,8.304L350.882,5.859c-7.811-7.811-20.474-7.811-28.284,0
			c-7.81,7.811-7.811,20.475,0,28.285l53.488,53.488l-48.37,48.369H184.285l-48.37-48.37l53.488-53.488
			c7.811-7.811,7.811-20.475,0-28.285c-7.811-7.81-20.474-7.811-28.284,0L107.63,59.347l-8.304-8.304
			c-7.811-7.811-20.474-7.81-28.284,0.001c-7.811,7.81-7.811,20.474,0,28.284l8.303,8.303l-53.488,53.488
			c-7.811,7.811-7.811,20.475,0,28.285c7.809,7.809,20.473,7.811,28.284,0l53.488-53.488l46.383,46.383
			c-13.269,60.853-13.269,126.55,0,187.403l-46.383,46.383l-53.488-53.488c-7.811-7.811-20.474-7.811-28.284,0
			c-7.81,7.811-7.811,20.475,0,28.285l53.488,53.488l-8.303,8.303c-7.811,7.811-7.811,20.475,0,28.284
			c7.81,7.81,20.473,7.812,28.284,0.001l8.304-8.304l53.489,53.489c7.809,7.809,20.473,7.811,28.284,0
			c7.811-7.811,7.811-20.475,0-28.285l-53.488-53.488l48.37-48.37h143.431l48.37,48.37l-53.488,53.488
			c-7.811,7.811-7.811,20.475,0,28.285c7.809,7.809,20.473,7.811,28.284,0l53.489-53.489l8.304,8.304
			c7.81,7.81,20.473,7.81,28.284-0.001c7.811-7.81,7.811-20.474,0-28.284l-8.303-8.303l53.488-53.488
			C493.955,363.071,493.955,350.407,486.144,342.597z M320.009,336.001H191.992c-10.613-52.116-10.613-107.883,0-160h128.017
			C330.622,228.117,330.622,283.885,320.009,336.001z"/>
	</g>
</g>
<g>
</g>
<g>
</g>
<g>
</g>
<g>
</g>
<g>
</g>
<g>
</g>
<g>
</g>
<g>
</g>
<g>
</g>
<g>
</g>
<g>
</g>
<g>
</g>
<g>
</g>
<g>
</g>
<g>
</g>
</svg>
