<?xml version="1.0" encoding="iso-8859-1"?>
<!-- Generator: Adobe Illustrator 17.1.0, SVG Export Plug-In . SVG Version: 6.00 Build 0)  -->
<!DOCTYPE svg PUBLIC "-//W3C//DTD SVG 1.1//EN" "http://www.w3.org/Graphics/SVG/1.1/DTD/svg11.dtd">
<svg version="1.1" id="Capa_1" xmlns="http://www.w3.org/2000/svg" xmlns:xlink="http://www.w3.org/1999/xlink" x="0px" y="0px"
	 viewBox="0 0 209.13 209.13" style="enable-background:new 0 0 209.13 209.13;" xml:space="preserve">
<path d="M194.209,131.683l-47.421,47.422c-1.953,1.953-5.118,1.953-7.071,0c-1.953-1.952-1.953-5.118,0-7.07l47.421-47.422
	c3.75-3.75,5.814-8.734,5.814-14.037s-2.065-10.287-5.814-14.037l-0.357-0.357c-3.747-3.747-8.732-5.813-14.034-5.813
	c-5.303,0-10.288,2.065-14.037,5.814L53.878,201.015c-5.41,5.41-12.517,8.115-19.623,8.115s-14.213-2.705-19.623-8.115l-0.325-0.325
	c-10.82-10.819-10.82-28.426,0-39.245l5.169-5.169l-0.72-0.72c-1.927-1.927-1.956-5.043-0.064-7.005l72.018-74.719l-2.628-2.628
	c-1.953-1.952-1.953-5.118,0-7.07c1.953-1.953,5.118-1.953,7.071,0l5.244,5.244l47.848-47.847c0.938-0.938,2.209-1.465,3.536-1.465
	c1.284,0,2.51,0.502,3.438,1.385l19.984-19.985c1.953-1.953,5.118-1.953,7.071,0c1.953,1.952,1.953,5.118,0,7.07l-19.985,19.986
	c1.863,1.958,1.843,5.051-0.079,6.973l-47.848,47.848l5.245,5.245c1.953,1.952,1.953,5.118,0,7.07
	c-0.977,0.977-2.256,1.465-3.536,1.465s-2.559-0.488-3.536-1.465l-2.628-2.628l-74.719,72.018c-0.969,0.935-2.22,1.4-3.469,1.4
	c-1.281,0-2.561-0.489-3.536-1.465l-1.636-1.636l-5.169,5.169c-6.921,6.922-6.921,18.183,0,25.104l0.325,0.325
	c6.921,6.92,18.183,6.92,25.104,0L151.638,89.112c5.638-5.639,13.135-8.744,21.108-8.744s15.47,3.105,21.108,8.744l0.357,0.357
	C205.848,101.106,205.848,120.044,194.209,131.683z"/>
<g>
</g>
<g>
</g>
<g>
</g>
<g>
</g>
<g>
</g>
<g>
</g>
<g>
</g>
<g>
</g>
<g>
</g>
<g>
</g>
<g>
</g>
<g>
</g>
<g>
</g>
<g>
</g>
<g>
</g>
</svg>
