<?xml version="1.0" encoding="UTF-8" standalone="no"?>
<svg xmlns:rdf="http://www.w3.org/1999/02/22-rdf-syntax-ns#" xmlns="http://www.w3.org/2000/svg" xml:space="preserve" height="74.038" viewBox="0 0 150 74.038116" width="150" version="1.1" xmlns:cc="http://creativecommons.org/ns#" xmlns:dc="http://purl.org/dc/elements/1.1/"><g transform="matrix(1.25 0 0 -1.25 -16.493 951.34)"><g style="" transform="matrix(1.793 0 0 1.793 -56.501 -578.63)"><path d="m60.891 1.1328c-2.978 0.091375-5.1805 2.1043-6.5293 4.1094-2.1175 3.2612-6.637 14.872-8.9258 26.604-1.29 1.175-3.0866 1.9675-4.2266 2.5625-6.0525 3.16-7.4405-3.6969-3.4043-10.141 1.5225-2.4312 4.6892-2.3094 4.4805 0.12305-1.2362-1.6762-3.5645-0.89969-3.8457 1.5703-0.1425 3.035 6.4223 3.6687 6.6035-2.1426 0.2675-8.6388-16.003-5.9496-16.271 7.9004 0 0-1.0756 2.892-3.6719 3.3945-1.8725 0.36375-1.882-3.0541-0.7207-7.9004 0.965-4.4375 0.94352-3.707 1.8848-7.6895 0.6975-2.955 3.9508-14.616 4.1133-15.59 0.15875-0.97251-0.42008-1.9139-1.6113-2.1914-0.965-0.225-2.1984-0.32048-3.5371 0.33203-1.455 0.70999-1.9239 2.2268-2.0977 3.123-1.8175 7.2975-2.5694 9.2241-3.8594 14.852-0.67375 2.88-3.1484 15.246-7.1621 14.795-2.0962-0.23375-2.2552-2.452-1.2852-6.7832 1.5638-6.0825 3.2091-10.951 4.3379-15.906 1.7025-6.4763-2.0922-12.785-9.9609-9.4473-4.7075 1.9963-5.1142 9.5187-2.168 9.4824 1.6675-0.02 1.3814-2.0884 1.5039-3.4121 0.33375-1.895 1.3765-2.7409 2.6465-2.6621 1.8888 0.4925 2.0122 1.8088 1.4297 5.4238-1.2387 4.2138-2.9552 9.7995-4.5664 17.02-2.6862 12.174 5.1544 12.639 8.7344 11.107 2.0738-0.8875 2.972-1.7287 4.377-4.5137 1.5938 7.3925 8.4034 5.788 12.461 0.51172 0.69875 2.4425 2.9812 4.0569 4.9199 4.3281 5.0375 0.9775 9.5528-2.8283 11.039-4.2383 1.0888 7.4212 10.882 4.3133 13.857 0.03711 3.1038 7.105 8.9513 4.2771 10.58-0.05664-0.04 4.4562 3.3362 5.5352 6.8125 3.6602 2.03-1.0188 2.433-1.3563 4.998-3.7988 1.7738-1.7938 0.93156-5.424-3.3672-1.6777-1.4 1.2212-4.3747 2.4729-2.5859-2.0996 0.37875-1.1312 3.5348-8.8852 3.7285-9.584 1.955-5.3212-5.2439-4.1902-6.2227-0.22266-4.67-8.6275-15.065 1.2565-14.947 9.834 0 0-3.5809 3.9076-5.9434 3.2051-2.3625-0.70125-0.05469-7.5938-0.05469-7.5938 5.8188-6.0888 9.5445-12.9 11.051-16.184 2.4675-5.3025 3.0562-10.019-1.9863-10.133-0.20539-0.01125-0.40889-0.014188-0.60742-0.00781zm1.2129 4.3887c0.06728-0.00876 0.13048-0.00765 0.18945 0.00195 0.60655 0.09875 0.75336 1.1602 0.03125 3.0059-2.3438 5.9813-5.4112 9.1339-7.5762 12.316 0.0375-0.23875 1.949-7.7838 5.4902-13.719 0.72878-1.0283 1.3942-1.5442 1.8652-1.6055zm8.1074 16.949c1.1872 0.04437 1.7819 1.6191 1.3516 3.5391-0.13875 0.61875-2.668 6.7383-2.668 6.7383-1.08 1.995-2.1852 2.4888-3.2227 2.2812-1.5075-0.4675-1.258-2.6558-0.79297-4.8008 1.0325-4.8675 3.4816-6.983 3.9629-7.248 0.51156-0.36875 0.9734-0.52457 1.3691-0.50977z" transform="matrix(.8 0 0 -.8 38.849 747.23)" fill="#2d68c4"/><path d="m60.891 1.1328c-2.978 0.091328-5.1805 2.1043-6.5293 4.1094-2.1175 3.2612-6.637 14.872-8.9258 26.604-1.29 1.175-3.0866 1.9675-4.2266 2.5625-6.0525 3.16-7.4405-3.6969-3.4043-10.141 1.5225-2.4312 4.6892-2.3095 4.4805 0.12305-1.2362-1.6762-3.5645-0.89969-3.8457 1.5703-0.1425 3.035 6.4223 3.6687 6.6035-2.1426 0.2675-8.6388-16.003-5.9496-16.271 7.9004 0 0-1.0756 2.892-3.6719 3.3945-1.8725 0.36375-1.882-3.0541-0.7207-7.9004 0.965-4.4375 0.94352-3.707 1.8848-7.6895 0.6975-2.955 3.9508-14.616 4.1133-15.59 0.15875-0.9725-0.42008-1.9139-1.6113-2.1914-0.965-0.225-2.1984-0.32047-3.5371 0.33203-1.455 0.71-1.9239 2.2268-2.0977 3.123-1.8175 7.2975-2.5694 9.2241-3.8594 14.852-0.67375 2.88-3.1484 15.246-7.1621 14.795-2.0962-0.23375-2.2552-2.452-1.2852-6.7832 1.5638-6.0825 3.2091-10.951 4.3379-15.906 1.7025-6.4763-2.0922-12.785-9.9609-9.4473-4.7075 1.9962-5.1142 9.5187-2.168 9.4824 1.6675-0.02 1.3814-2.0884 1.5039-3.4121 0.33375-1.895 1.3765-2.7409 2.6465-2.6621 1.8888 0.4925 2.0122 1.8088 1.4297 5.4238-1.2387 4.2138-2.9552 9.7995-4.5664 17.02-2.6862 12.174 5.1544 12.639 8.7344 11.107 2.0738-0.8875 2.972-1.7287 4.377-4.5137 1.5938 7.3925 8.4034 5.788 12.461 0.51172 0.69875 2.4425 2.9812 4.0569 4.9199 4.3281 5.0375 0.9775 9.5528-2.8283 11.039-4.2383 1.0888 7.4212 10.882 4.3134 13.857 0.03711 3.1038 7.105 8.9513 4.2771 10.58-0.05664-0.04 4.4562 3.3362 5.5352 6.8125 3.6602 2.03-1.0188 2.433-1.3563 4.998-3.7988 1.7738-1.7938 0.93156-5.424-3.3672-1.6777-1.4 1.2212-4.3747 2.4729-2.5859-2.0996 0.37875-1.1312 3.5348-8.8852 3.7285-9.584 1.955-5.3212-5.2439-4.1902-6.2227-0.22266-4.67-8.6275-15.065 1.2565-14.947 9.834 0 0-3.5809 3.9076-5.9434 3.2051-2.3625-0.70125-0.05469-7.5938-0.05469-7.5938 5.8188-6.0888 9.5445-12.9 11.051-16.184 2.466-5.3011 3.055-10.018-1.988-10.131-0.205-0.0119-0.409-0.0143-0.607-0.0082zm1.4023 4.3906c0.60655 0.098745 0.75336 1.1602 0.03125 3.0059-2.3438 5.9813-5.4112 9.1339-7.5762 12.316 0.0375-0.23875 1.949-7.7838 5.4902-13.719 0.83289-1.1752 1.5829-1.6803 2.0547-1.6035zm7.918 16.947c1.1872 0.04441 1.7819 1.6191 1.3516 3.5391-0.13875 0.61875-2.668 6.7383-2.668 6.7383-1.08 1.995-2.1852 2.4888-3.2227 2.2812-1.5075-0.4675-1.258-2.6558-0.79297-4.8008 1.0325-4.8675 3.4816-6.983 3.9629-7.248 0.51156-0.36875 0.9734-0.52457 1.3691-0.50977z" transform="matrix(.8 0 0 -.8 38.849 747.23)" stroke="#f2a900" stroke-width="1.0087" fill="none"/></g></g></svg>
