<svg width="637" height="206" viewBox="0 0 637 206" version="1.1" xmlns="http://www.w3.org/2000/svg" xmlns:xlink="http://www.w3.org/1999/xlink">
<title>logo_2_1.5</title>
<desc>Created using Figma</desc>
<g id="Canvas" transform="translate(576 -562)">
<g id="Group">
<clipPath>
  <path id = "letter-clip" d="M 0, 0 L 100, 0 L 100, 100 L 0, 100 0Z" transform="translate(-576 563)" stroke="#FFFFFF" stroke-width="4"/>
</clipPath>
<g id="Vector">
<use xlink:href="#path0_fill" transform="translate(-160.355 563)" fill="#2F80ED"/>
<use xlink:href="#path1_stroke" transform="translate(-160.355 563)" fill="#2F80ED"/>
</g>
<g id="Rectangle">
<path id="left_rect" d="M 20.25, 0L 20.25, 205" transform="translate(-576 563)" fill="#2F80ED" stroke-width="25" stroke="#2F80ED"/>
</g>
<g id="WSF">
<use xlink:href="#path3_fill" transform="translate(-561 480.4)" fill="#F7F7F7"/>
</g>
</g>
</g>
<defs>
<path id="path0_fill" d="M 39.5836 200.895L 0 200.895C 69.6491 150.221 190.9 52.8856 156.855 39.5977L 100.014 39.5977L 99.5532 0.261873L 146.159 0.261873L 220.316 0L 220.316 39.195C 222.821 47.7375 106.169 148.089 39.5836 200.895Z"/>
<path id="path1_stroke" d="M 0 200.895L -0.294161 200.49L -1.53711 201.395L 0 201.395L 0 200.895ZM 39.5836 200.895L 39.5836 201.395L 39.7578 201.395L 39.8943 201.286L 39.5836 200.895ZM 146.159 0.261873L 146.159 0.761876L 146.16 0.76187L 146.159 0.261873ZM 220.316 0L 220.816 0L 220.816 -0.501769L 220.314 -0.499997L 220.316 0ZM 220.316 39.195L 219.816 39.195L 219.816 39.2668L 219.836 39.3357L 220.316 39.195ZM 99.5532 0.261873L 99.5532 -0.238127L 99.0473 -0.238127L 99.0532 0.267725L 99.5532 0.261873ZM 100.014 39.5977L 99.5137 39.6035L 99.5195 40.0977L 100.014 40.0977L 100.014 39.5977ZM 156.855 39.5977L 157.037 39.1319L 156.949 39.0977L 156.855 39.0977L 156.855 39.5977ZM 0 201.395L 39.5836 201.395L 39.5836 200.395L 0 200.395L 0 201.395ZM 146.16 0.76187L 220.317 0.499997L 220.314 -0.499997L 146.157 -0.238124L 146.16 0.76187ZM 39.8943 201.286C 73.1942 174.878 119.01 136.583 156.189 103.821C 174.778 87.441 191.213 72.439 202.847 60.9951C 208.663 55.2746 213.288 50.4345 216.383 46.7515C 217.929 44.9118 219.106 43.3468 219.859 42.0965C 220.235 41.4721 220.515 40.9102 220.68 40.4206C 220.841 39.9434 220.917 39.468 220.795 39.0543L 219.836 39.3357C 219.871 39.456 219.87 39.6938 219.733 40.1006C 219.6 40.495 219.359 40.9879 219.002 41.5806C 218.289 42.7646 217.151 44.2831 215.617 46.1081C 212.553 49.7545 207.955 54.5684 202.146 60.2822C 190.532 71.7069 174.112 86.6948 155.528 103.071C 118.361 135.822 72.5585 174.106 39.2729 200.503L 39.8943 201.286ZM 219.816 0L 219.816 39.195L 220.816 39.195L 220.816 0L 219.816 0ZM 146.159 -0.238127L 99.5532 -0.238127L 99.5532 0.761873L 146.159 0.761873L 146.159 -0.238127ZM 99.0532 0.267725L 99.5137 39.6035L 100.514 39.5918L 100.053 0.256021L 99.0532 0.267725ZM 0.294161 201.299C 35.1254 175.957 82.8688 138.942 117.653 106.593C 135.039 90.4246 149.219 75.3933 156.923 63.5529C 160.768 57.6433 163.046 52.4596 163.246 48.289C 163.347 46.1898 162.922 44.3274 161.886 42.7658C 160.851 41.2055 159.237 39.9904 157.037 39.1319L 156.673 40.0634C 158.729 40.8659 160.157 41.9684 161.053 43.3185C 161.947 44.6674 162.34 46.3082 162.247 48.2411C 162.061 52.135 159.908 57.1315 156.085 63.0075C 148.452 74.7383 134.35 89.6996 116.972 105.86C 82.2305 138.17 34.5237 175.158 -0.294161 200.49L 0.294161 201.299ZM 100.014 40.0977L 156.855 40.0977L 156.855 39.0977L 100.014 39.0977L 100.014 40.0977Z"/>
<path id="path3_fill" d="M 218.812 226.344C 218.812 234.688 217.219 242.562 214.031 249.969C 210.938 257.281 206.625 263.703 201.094 269.234C 195.656 274.672 189.234 278.984 181.828 282.172C 174.516 285.266 166.688 286.812 158.344 286.812C 150.844 286.812 143.625 285.5 136.688 282.875C 129.844 280.25 123.656 276.406 118.125 271.344C 112.594 276.406 106.359 280.25 99.4219 282.875C 92.4844 285.5 85.2656 286.812 77.7656 286.812C 69.4219 286.812 61.5469 285.266 54.1406 282.172C 46.8281 278.984 40.4062 274.672 34.875 269.234C 29.4375 263.703 25.125 257.281 21.9375 249.969C 18.8438 242.562 17.2969 234.688 17.2969 226.344L 17.2969 82.3438L 57.6562 82.3438L 57.6562 226.344C 57.6562 229.156 58.1719 231.828 59.2031 234.359C 60.2344 236.797 61.6406 238.953 63.4219 240.828C 65.2969 242.609 67.4531 244.016 69.8906 245.047C 72.3281 246.078 74.9531 246.594 77.7656 246.594C 80.5781 246.594 83.2031 246.078 85.6406 245.047C 88.0781 244.016 90.1875 242.609 91.9688 240.828C 93.8438 238.953 95.2969 236.797 96.3281 234.359C 97.3594 231.828 97.875 229.156 97.875 226.344L 97.875 82.3438L 138.234 82.3438L 138.234 226.344C 138.234 229.156 138.75 231.828 139.781 234.359C 140.812 236.797 142.219 238.953 144 240.828C 145.875 242.609 148.031 244.016 150.469 245.047C 152.906 246.078 155.531 246.594 158.344 246.594C 161.156 246.594 163.781 246.078 166.219 245.047C 168.656 244.016 170.766 242.609 172.547 240.828C 174.422 238.953 175.875 236.797 176.906 234.359C 178.031 231.828 178.594 229.156 178.594 226.344L 178.594 82.3438L 218.812 82.3438L 218.812 226.344ZM 207.141 142.812C 207.141 134.469 208.734 126.641 211.922 119.328C 215.109 112.016 219.422 105.641 224.859 100.203C 230.391 94.6719 236.812 90.3125 244.125 87.125C 251.438 83.9375 259.266 82.3438 267.609 82.3438L 360.141 82.3438L 360.141 122.703L 267.609 122.703C 264.797 122.703 262.172 123.219 259.734 124.25C 257.297 125.281 255.141 126.734 253.266 128.609C 251.484 130.391 250.078 132.5 249.047 134.938C 248.016 137.375 247.5 140 247.5 142.812C 247.5 145.625 248.016 148.297 249.047 150.828C 250.078 153.266 251.484 155.422 253.266 157.297C 255.141 159.078 257.297 160.484 259.734 161.516C 262.172 162.547 264.797 163.062 267.609 163.062L 307.969 163.062C 316.312 163.062 324.141 164.656 331.453 167.844C 338.859 170.938 345.281 175.25 350.719 180.781C 356.25 186.219 360.562 192.641 363.656 200.047C 366.844 207.359 368.438 215.188 368.438 223.531C 368.438 231.875 366.844 239.703 363.656 247.016C 360.562 254.328 356.25 260.75 350.719 266.281C 345.281 271.719 338.859 276.031 331.453 279.219C 324.141 282.406 316.312 284 307.969 284L 218.391 284L 218.391 243.641L 307.969 243.641C 310.781 243.641 313.406 243.125 315.844 242.094C 318.281 241.062 320.391 239.656 322.172 237.875C 324.047 236 325.5 233.844 326.531 231.406C 327.562 228.969 328.078 226.344 328.078 223.531C 328.078 220.719 327.562 218.094 326.531 215.656C 325.5 213.219 324.047 211.109 322.172 209.328C 320.391 207.453 318.281 206 315.844 204.969C 313.406 203.938 310.781 203.422 307.969 203.422L 267.609 203.422C 259.266 203.422 251.438 201.828 244.125 198.641C 236.812 195.453 230.391 191.141 224.859 185.703C 219.422 180.172 215.109 173.75 211.922 166.438C 208.734 159.031 207.141 151.156 207.141 142.812ZM 399.375 284L 359.016 284L 359.016 82.3438L 500.203 82.3438L 500.203 122.703L 399.375 122.703L 399.375 163.062L 459.844 163.062L 459.844 203.422L 399.375 203.422L 399.375 284Z"/>
</defs>
</svg>
