<svg width="637" height="206" viewBox="0 0 637 206" version="1.1" xmlns="http://www.w3.org/2000/svg" xmlns:xlink="http://www.w3.org/1999/xlink">
<title>Group</title>
<desc>Created using Figma</desc>
<g id="Canvas" transform="translate(576 -562)">
<g id="Group">
<g id="Vector">
<use xlink:href="#path0_fill" transform="translate(-161 563)" fill="#2F80ED"/>
<use xlink:href="#path1_stroke" transform="translate(-161 563)" fill="#2F80ED"/>
</g>
<g id="Rectangle">
<use xlink:href="#path2_fill" transform="translate(-576 563)" fill="#2F80ED"/>
</g>
<g id="Rectangle">
<use xlink:href="#path3_fill" transform="translate(-576 563)" fill="#2F80ED"/>
</g>
<g id="WSF">
<use xlink:href="#path4_fill" transform="translate(-561 480.4)" fill="#F7F7F7"/>
</g>
</g>
</g>
<defs>
<path id="path0_fill" d="M 40.0836 201L 0 201C 69.6491 150.326 191.545 52.8856 157.5 39.5977L 100.658 39.5977L 100.198 0.261873L 146.803 0.261873L 220.96 0L 220.96 39.195C 223.466 47.7375 106.669 148.194 40.0836 201Z"/>
<path id="path1_stroke" d="M 0 201L -0.294161 200.596L -1.53711 201.5L 0 201.5L 0 201ZM 40.0836 201L 40.0836 201.5L 40.2578 201.5L 40.3943 201.392L 40.0836 201ZM 146.803 0.261873L 146.803 0.761876L 146.805 0.76187L 146.803 0.261873ZM 220.96 0L 221.46 0L 221.46 -0.501769L 220.959 -0.499997L 220.96 0ZM 220.96 39.195L 220.46 39.195L 220.46 39.2668L 220.481 39.3357L 220.96 39.195ZM 100.198 0.261873L 100.198 -0.238127L 99.6921 -0.238127L 99.698 0.267725L 100.198 0.261873ZM 100.658 39.5977L 100.158 39.6035L 100.164 40.0977L 100.658 40.0977L 100.658 39.5977ZM 157.5 39.5977L 157.682 39.1319L 157.594 39.0977L 157.5 39.0977L 157.5 39.5977ZM 0 201.5L 40.0836 201.5L 40.0836 200.5L 0 200.5L 0 201.5ZM 146.805 0.76187L 220.962 0.499997L 220.959 -0.499997L 146.802 -0.238124L 146.805 0.76187ZM 40.3943 201.392C 73.6942 174.983 119.546 136.662 156.762 103.874C 175.368 87.4805 191.822 72.4653 203.469 61.0116C 209.292 55.2861 213.922 50.4419 217.021 46.7561C 218.569 44.915 219.748 43.3489 220.502 42.0979C 220.878 41.4731 221.159 40.9109 221.325 40.4211C 221.486 39.9437 221.561 39.4681 221.44 39.0543L 220.481 39.3357C 220.516 39.4558 220.515 39.6936 220.377 40.1007C 220.244 40.4953 220.003 40.9885 219.645 41.5817C 218.931 42.7665 217.792 44.2861 216.256 46.1125C 213.187 49.7618 208.584 54.5798 202.768 60.2986C 191.14 71.7332 174.703 86.7343 156.1 103.124C 118.897 135.901 73.0585 174.211 39.7729 200.608L 40.3943 201.392ZM 220.46 0L 220.46 39.195L 221.46 39.195L 221.46 0L 220.46 0ZM 146.803 -0.238127L 100.198 -0.238127L 100.198 0.761873L 146.803 0.761873L 146.803 -0.238127ZM 99.698 0.267725L 100.158 39.6035L 101.158 39.5918L 100.698 0.256021L 99.698 0.267725ZM 0.294161 201.404C 35.125 176.063 83.0295 139.021 117.975 106.646C 135.441 90.4648 149.702 75.4206 157.466 63.5707C 161.341 57.6564 163.645 52.4689 163.863 48.2957C 163.973 46.1951 163.555 44.331 162.524 42.7681C 161.494 41.2063 159.882 39.9905 157.682 39.1319L 157.318 40.0634C 159.374 40.8658 160.799 41.9685 161.689 43.3187C 162.579 44.6676 162.966 46.3091 162.864 48.2435C 162.661 52.1404 160.483 57.1414 156.63 63.0226C 148.937 74.7636 134.754 89.7383 117.296 105.912C 82.3922 138.248 34.5241 175.263 -0.294161 200.596L 0.294161 201.404ZM 100.658 40.0977L 157.5 40.0977L 157.5 39.0977L 100.658 39.0977L 100.658 40.0977Z"/>
<path id="path2_fill" d="M 0 0L 33 0L 33 137L 0 137L 0 0Z"/>
<path id="path3_fill" d="M 0 0L 33 0L 33 205L 0 205L 0 0Z"/>
<path id="path4_fill" d="M 218.812 226.344C 218.812 234.688 217.219 242.562 214.031 249.969C 210.938 257.281 206.625 263.703 201.094 269.234C 195.656 274.672 189.234 278.984 181.828 282.172C 174.516 285.266 166.688 286.812 158.344 286.812C 150.844 286.812 143.625 285.5 136.688 282.875C 129.844 280.25 123.656 276.406 118.125 271.344C 112.594 276.406 106.359 280.25 99.4219 282.875C 92.4844 285.5 85.2656 286.812 77.7656 286.812C 69.4219 286.812 61.5469 285.266 54.1406 282.172C 46.8281 278.984 40.4062 274.672 34.875 269.234C 29.4375 263.703 25.125 257.281 21.9375 249.969C 18.8438 242.562 17.2969 234.688 17.2969 226.344L 17.2969 82.3438L 57.6562 82.3438L 57.6562 226.344C 57.6562 229.156 58.1719 231.828 59.2031 234.359C 60.2344 236.797 61.6406 238.953 63.4219 240.828C 65.2969 242.609 67.4531 244.016 69.8906 245.047C 72.3281 246.078 74.9531 246.594 77.7656 246.594C 80.5781 246.594 83.2031 246.078 85.6406 245.047C 88.0781 244.016 90.1875 242.609 91.9688 240.828C 93.8438 238.953 95.2969 236.797 96.3281 234.359C 97.3594 231.828 97.875 229.156 97.875 226.344L 97.875 82.3438L 138.234 82.3438L 138.234 226.344C 138.234 229.156 138.75 231.828 139.781 234.359C 140.812 236.797 142.219 238.953 144 240.828C 145.875 242.609 148.031 244.016 150.469 245.047C 152.906 246.078 155.531 246.594 158.344 246.594C 161.156 246.594 163.781 246.078 166.219 245.047C 168.656 244.016 170.766 242.609 172.547 240.828C 174.422 238.953 175.875 236.797 176.906 234.359C 178.031 231.828 178.594 229.156 178.594 226.344L 178.594 82.3438L 218.812 82.3438L 218.812 226.344ZM 207.141 142.812C 207.141 134.469 208.734 126.641 211.922 119.328C 215.109 112.016 219.422 105.641 224.859 100.203C 230.391 94.6719 236.812 90.3125 244.125 87.125C 251.438 83.9375 259.266 82.3438 267.609 82.3438L 360.141 82.3438L 360.141 122.703L 267.609 122.703C 264.797 122.703 262.172 123.219 259.734 124.25C 257.297 125.281 255.141 126.734 253.266 128.609C 251.484 130.391 250.078 132.5 249.047 134.938C 248.016 137.375 247.5 140 247.5 142.812C 247.5 145.625 248.016 148.297 249.047 150.828C 250.078 153.266 251.484 155.422 253.266 157.297C 255.141 159.078 257.297 160.484 259.734 161.516C 262.172 162.547 264.797 163.062 267.609 163.062L 307.969 163.062C 316.312 163.062 324.141 164.656 331.453 167.844C 338.859 170.938 345.281 175.25 350.719 180.781C 356.25 186.219 360.562 192.641 363.656 200.047C 366.844 207.359 368.438 215.188 368.438 223.531C 368.438 231.875 366.844 239.703 363.656 247.016C 360.562 254.328 356.25 260.75 350.719 266.281C 345.281 271.719 338.859 276.031 331.453 279.219C 324.141 282.406 316.312 284 307.969 284L 218.391 284L 218.391 243.641L 307.969 243.641C 310.781 243.641 313.406 243.125 315.844 242.094C 318.281 241.062 320.391 239.656 322.172 237.875C 324.047 236 325.5 233.844 326.531 231.406C 327.562 228.969 328.078 226.344 328.078 223.531C 328.078 220.719 327.562 218.094 326.531 215.656C 325.5 213.219 324.047 211.109 322.172 209.328C 320.391 207.453 318.281 206 315.844 204.969C 313.406 203.938 310.781 203.422 307.969 203.422L 267.609 203.422C 259.266 203.422 251.438 201.828 244.125 198.641C 236.812 195.453 230.391 191.141 224.859 185.703C 219.422 180.172 215.109 173.75 211.922 166.438C 208.734 159.031 207.141 151.156 207.141 142.812ZM 399.375 284L 359.016 284L 359.016 82.3438L 500.203 82.3438L 500.203 122.703L 399.375 122.703L 399.375 163.062L 459.844 163.062L 459.844 203.422L 399.375 203.422L 399.375 284Z"/>
</defs>
</svg>
